# xmcd
# 
# Track frame offsets:
#     150
#     16127
#     34420
# 
# Disc length: 631
# 
# Revision: 2
# Processed by: cddbd v1.5.2PL0 Copyright (c) Steve Scherf et al.
# Submitted via: fre:ac v1.1beta1pre5
# 
DISCID=1b027503
DTITLE=The Cardigans - Hey ! Get Out of My Way
DYEAR=1995
DGENRE=Pop
TTITLE0=Hey ! Get Out of My Way
TTITLE1=The Boys are Back in Town
TTITLE2=Carnival (Puck Version)
EXTD=
EXTT0=
EXTT1=
EXTT2=
PLAYORDER=
